<?xml version="1.0" encoding="utf-8"?>
<!-- Generator: Adobe Illustrator 23.0.3, SVG Export Plug-In . SVG Version: 6.00 Build 0)  -->
<svg version="1.1" id="Layer_1" xmlns="http://www.w3.org/2000/svg" xmlns:xlink="http://www.w3.org/1999/xlink" x="0px" y="0px"
	 viewBox="0 0 320 82" style="enable-background:new 0 0 320 82;" xml:space="preserve">
<style type="text/css">
	.st0{fill:#11CA79;}
	.st1{fill:#3474FF;}
	.st2{fill:#231F20;}
	.st3{fill:#00ADEF;}
</style>
<g>
	<g>
		<path class="st0" d="M253.84,30.79c0,10.15-7.17,16.94-17.51,16.94c-10.54,0-17.61-6.83-17.61-16.94
			c0-10.15,7.17-16.84,17.61-16.84S253.84,20.69,253.84,30.79 M227,30.94c0,5.97,3.85,10.15,9.48,10.15c5.44,0,9.38-4.14,9.38-10.15
			c0-5.97-3.85-10.15-9.38-10.15C230.8,20.88,227,24.92,227,30.94"/>
	</g>
	<g>
		<path class="st0" d="M290.46,14.15v33.29h-8.08v-6.21c-2.36,4.38-6.3,6.49-11.64,6.49c-7.46,0-12.03-4.91-12.03-12.8V14.15h8.08
			v18.43c0,4.71,2.65,7.46,7.17,7.46c5.24-0.1,8.32-4.14,8.32-9.48V14.15H290.46z"/>
	</g>
	<g>
		<path class="st0" d="M320,45.42c-2.55,1.59-5.44,2.45-8.32,2.45c-5.44,0-9.82-3.08-9.82-9.91V21.41h-4.72l-0.1-5.87h4.72V6.35
			h7.99v9.19h9.48v5.87h-9.48v15.06c0,3.22,1.3,4.28,3.51,4.28c1.4,0,2.89-0.53,4.72-1.4L320,45.42z"/>
	</g>
	<g>
		<polygon class="st1" points="218.77,47.68 187.74,16.75 187.74,28.15 207.37,47.68 		"/>
	</g>
	<g>
		<rect x="187.74" y="1.16" class="st1" width="8.08" height="46.48"/>
	</g>
	<g>
		<polygon class="st0" points="206.84,13.86 195.82,24.73 187.74,16.74 187.74,28.15 190.19,30.51 195.82,36.23 218.24,13.86 		"/>
	</g>
	<g>
		<path class="st1" d="M32.14,47.44H1.01v-6.21l14.72-15.68c2.02-2.26,3.51-4.14,4.47-5.77c0.96-1.64,1.49-3.22,1.49-4.72
			c0-2.02-0.53-3.61-1.49-4.81c-1.06-1.15-2.45-1.68-4.38-1.68c-2.02,0-3.61,0.77-4.81,2.12C9.86,12.08,9.19,14,9.19,16.22H0
			c0-2.79,0.63-5.34,2.02-7.55c1.3-2.36,3.22-4.14,5.53-5.44c2.45-1.3,5.1-1.92,8.23-1.92c4.71,0,8.32,1.15,10.97,3.42
			c2.65,2.26,3.94,5.44,3.94,9.62c0,2.26-0.53,4.57-1.68,6.93c-1.16,2.36-3.22,5-5.97,8.23L12.7,40.37h19.63v7.02h-0.19V47.44z"/>
	</g>
	<g>
		<path class="st1" d="M53.89,20.98c-5.34,0-9.05,3.95-9.05,9.82c0,5.97,3.75,9.91,9.05,9.91c3.85,0,6.93-1.3,8.95-3.95l5,4.14
			c-2.89,4.28-7.89,6.74-14.39,6.74c-9.91,0-16.84-6.83-16.84-16.84c0-10.15,6.93-16.94,16.94-16.94c6.06,0,10.97,2.26,13.95,6.06
			l-4.91,4.71C60.48,22.37,57.5,20.98,53.89,20.98"/>
	</g>
	<g>
		<path class="st1" d="M107.53,26.75v20.78h-8.08V29.11c0-4.71-2.79-7.55-7.36-7.55c-5.44,0.1-8.76,4.14-8.76,9.62v16.31h-8.08V1.3
			h8.08v19.2c2.36-4.57,6.5-6.59,12.03-6.59C102.82,13.86,107.53,18.77,107.53,26.75"/>
	</g>
	<g>
		<path class="st1" d="M146.46,33.68h-24.63c1.06,4.72,4.71,7.55,9.48,7.55c3.42,0,6.59-1.3,8.95-3.75l4.38,4.57
			c-3.32,3.61-8.08,5.77-13.95,5.77c-10.34,0-17.18-6.83-17.18-16.84c0-10.15,6.93-16.94,16.94-16.94
			C142.17,13.95,147.23,21.65,146.46,33.68 M139.09,28.24c-0.19-4.91-3.51-7.99-8.52-7.99c-4.81,0-8.08,3.08-8.85,7.99H139.09z"/>
	</g>
	<g>
		<path class="st1" d="M167.67,20.98c-5.34,0-9.05,3.95-9.05,9.82c0,5.97,3.75,9.91,9.05,9.91c3.85,0,6.93-1.3,8.95-3.95l5,4.14
			c-2.89,4.28-7.89,6.74-14.39,6.74c-9.91,0-16.84-6.83-16.84-16.84c0-10.15,6.93-16.94,16.94-16.94c6.06,0,10.97,2.26,13.95,6.06
			l-4.91,4.71C174.17,22.37,171.33,20.98,167.67,20.98"/>
	</g>
	<g>
		<g>
			<path class="st2" d="M137.5,65.79c0,0.66-0.48,1.17-1.12,1.17c-0.64,0-1.12-0.51-1.12-1.17c0-0.68,0.48-1.17,1.12-1.17
				C137.02,64.63,137.5,65.11,137.5,65.79z M137.24,69.12v11.57h-1.69V69.12H137.24z"/>
			<path class="st2" d="M144.39,70.48c-1.3,0-2.29,0.46-2.29,1.56c0,2.62,6.47,1.28,6.47,5.44c0,2.27-2.02,3.28-4.25,3.28
				c-1.65,0-3.34-0.57-4.45-1.63l0.66-1.25c0.99,0.92,2.49,1.47,3.85,1.47s2.46-0.53,2.49-1.69c0.07-2.82-6.42-1.39-6.4-5.48
				c0-2.2,1.91-3.15,4.03-3.15c1.39,0,2.73,0.42,3.7,1.06l-0.66,1.32C146.63,70.83,145.47,70.48,144.39,70.48z"/>
			<path class="st2" d="M168.59,73.56v7.13h-1.72V74c0-2.07-1.23-3.3-3.28-3.3c-2.29,0.02-3.7,1.54-3.89,3.78v6.21h-1.72V69.12h1.72
				v2.55c0.81-1.76,2.38-2.6,4.49-2.62C166.96,69.05,168.59,70.74,168.59,73.56z"/>
			<path class="st2" d="M183,74.88c0,3.45-2.44,5.87-5.88,5.87c-3.45,0-5.88-2.42-5.88-5.87c0-3.43,2.42-5.83,5.88-5.83
				C180.56,69.05,183,71.45,183,74.88z M172.97,74.9c0,2.6,1.72,4.36,4.16,4.36c2.42,0,4.16-1.76,4.16-4.36
				c0-2.55-1.74-4.33-4.16-4.33C174.68,70.57,172.97,72.35,172.97,74.9z"/>
			<path class="st2" d="M185.81,69.12l3.43,9.84l3.37-9.84h1.8l3.41,9.84l3.39-9.84H203l-4.29,11.57h-1.78l-3.41-9.48l-3.39,9.48
				h-1.78l-4.33-11.57H185.81z"/>
		</g>
		<g>
			<g>
				<polygon class="st2" points="254.17,65.16 258.27,65.16 258.93,61.83 254.83,61.83 				"/>
			</g>
			<g>
				<path class="st2" d="M253.74,67.29h4.11l-2.61,13.12c-0.19,0.07-0.78,0.3-1.59,0.3c-1.1,0-2.1-0.43-2.1-1.94
					c0-0.28,0.03-0.61,0.11-0.98C252.47,73.7,253.74,67.29,253.74,67.29"/>
			</g>
			<g>
				<path class="st2" d="M294.52,67c-2.73,0-3.82,1.6-4.33,2.57h-0.05l0.16-2.27h-4.06c-0.03,0.5-0.2,2.07-0.46,3.43
					c0,0-0.94,4.76-1.11,5.67c-0.13,0.7-0.38,1.73-0.38,2.32c0,1.27,0.65,1.99,2.09,1.99c0.81,0,1.39-0.22,1.6-0.3l1.36-6.83
					c0.38-1.89,1.74-3.12,3.37-3.12c1.31,0,1.94,0.95,1.94,1.73c0,0.68-0.17,1.43-0.3,2.1l-0.58,2.93
					c-0.07,0.35-0.22,1.03-0.22,1.56c0,1.29,0.73,1.94,2.12,1.94c0.76,0,1.24-0.19,1.58-0.3l1.22-6.12
					c0.26-1.38,0.36-2.11,0.36-2.99C298.8,68.76,297.32,67,294.52,67"/>
			</g>
			<g>
				<path class="st2" d="M276.63,66.99c-4.89,0-8.06,3.12-8.06,7.73c0,3.36,2.1,5.99,6.5,5.99c4.68,0,8.06-2.91,8.06-7.85
					C283.13,69.56,280.87,66.99,276.63,66.99 M275.32,77.54c-1.81,0-2.61-1.18-2.61-2.94c0-2.09,1.27-4.43,3.57-4.43
					c1.97,0,2.69,1.31,2.69,2.66C278.97,75.8,277.37,77.54,275.32,77.54"/>
			</g>
			<g>
				<path class="st2" d="M259.69,77.55c-0.09,0.47-0.15,0.8-0.15,1.21c0,1.5,1.01,1.95,2.07,1.95c0.85,0,1.38-0.23,1.57-0.3
					l1.98-9.94l3.19,0l0.63-3.17h-3.19l0.16-0.78c0.29-1.47,0.98-2.11,2.17-2.11c0.8,0,1.44,0.14,1.67,0.2l0.6-3.02
					c-0.26-0.06-1.44-0.35-3.18-0.35c-2.78,0-4.61,1.69-5.15,4.41l-0.33,1.66h-2.08l-0.63,3.17h2.08
					C261.1,70.47,260.28,74.58,259.69,77.55"/>
			</g>
			<g>
				<path class="st2" d="M250.24,67c-2.06,0-3.2,1.43-3.64,2.57h-0.05l0.16-2.27h-4.06c-0.04,0.79-0.2,2.12-0.61,4.21
					c-0.42,2.12-0.83,4.23-1.25,6.29c-0.07,0.35-0.1,0.7-0.1,0.99c0,1.08,0.53,1.93,2.11,1.93c0.78,0,1.32-0.2,1.58-0.3l1.21-6.08
					c0.44-2.33,1.23-3.86,3.52-3.86c1.04,0,2.04,0.22,2.24,0.28l0.7-3.5C251.88,67.2,251.28,67,250.24,67"/>
			</g>
			<g>
				<path class="st2" d="M313.89,72.71c0-3.98-2.62-5.71-6.12-5.71c-5.31,0-7.48,4.45-7.48,7.73c0,3.3,2.12,5.99,6.45,5.99
					c3.13,0,4.9-1.4,4.9-3.22v-0.34c-0.26,0.13-1.89,0.64-3.34,0.64c-3.23,0-4.04-1.65-4.02-2.61h9.31
					C313.67,74.75,313.89,73.69,313.89,72.71 M309.8,72.61h-5.23c0.38-1.13,1.23-2.44,3.16-2.44
					C309.32,70.17,310.02,71.41,309.8,72.61"/>
			</g>
			<g>
				<path class="st2" d="M239.69,72.71c0-3.98-2.62-5.71-6.12-5.71c-5.31,0-7.48,4.45-7.48,7.73c0,3.3,2.12,5.99,6.45,5.99
					c3.13,0,4.9-1.4,4.9-3.22v-0.34c-0.26,0.13-1.9,0.64-3.34,0.64c-3.23,0-4.04-1.65-4.02-2.61h9.31
					C239.47,74.75,239.69,73.69,239.69,72.71 M235.6,72.61h-5.23c0.38-1.13,1.23-2.44,3.16-2.44
					C235.12,70.17,235.82,71.41,235.6,72.61"/>
			</g>
			<g>
				<path class="st2" d="M212.76,62.83h4.13v13.04c0,1.96,0.98,2.96,2.55,2.96c0.16,0,0.25-0.02,0.29-0.03
					c-0.69,1.04-1.58,1.89-3.63,1.89c-2.17,0-3.34-1.5-3.34-3.76V62.83z"/>
			</g>
			<g>
				<path class="st3" d="M218.04,74.53v1.37c0,1.32,0.72,1.8,1.5,1.8c0.8,0,1.22-0.54,1.62-1.16c0.66-1.03,8.68-13.71,8.68-13.71
					h-4.29L218.04,74.53z"/>
			</g>
			<g>
				<path class="st2" d="M317.6,68.85h0.45c0.42,0,0.63-0.2,0.63-0.45c0-0.15-0.08-0.37-0.47-0.37h-0.45L317.6,68.85z M317.59,67.84
					h0.67c0.4,0,0.65,0.22,0.65,0.53c0,0.53-0.49,0.64-0.72,0.66l0.45,1.11h-0.24l-0.43-1.09h-0.4l-0.22,1.09h-0.21L317.59,67.84z
					 M317.77,70.82c1.11,0,1.87-0.8,1.98-1.79c0.11-0.99-0.6-1.79-1.59-1.79c-1.1,0-1.87,0.8-1.98,1.79
					C316.07,70.02,316.78,70.82,317.77,70.82 M318.18,67.01c1.12,0,1.93,0.91,1.8,2.03c-0.12,1.12-1.03,2.02-2.25,2.02
					c-1.12,0-1.93-0.91-1.8-2.02C316.06,67.92,316.99,67.01,318.18,67.01"/>
			</g>
		</g>
	</g>
</g>
</svg>
